{
  "accessors": [
    {
      "bufferView": 2,
      "componentType": 5126,
      "count": 11262,
      "max": [
        5597.99169921875,
        9676.146484375,
        4298.24853515625
      ],
      "min": [
        0.0,
        0.0,
        0.0
      ],
      "type": "VEC3"
    },
    {
      "bufferView": 2,
      "byteOffset": 135144,
      "componentType": 5126,
      "count": 11262,
      "max": [
        1.0,
        1.0,
        1.0
      ],
      "min": [
        -1.0,
        -1.0,
        -1.0
      ],
      "type": "VEC3"
    },
    {
      "bufferView": 3,
      "componentType": 5126,
      "count": 11262,
      "max": [
        1.0,
        1.0,
        1.0,
        1.0
      ],
      "min": [
        -1.0,
        -1.0,
        -1.0,
        -1.0
      ],
      "type": "VEC4"
    },
    {
      "bufferView": 1,
      "componentType": 5126,
      "count": 11262,
      "max": [
        0.9975820183753967,
        0.9989479780197144
      ],
      "min": [
        0.0021730000153183937,
        0.0032029999420046806
      ],
      "type": "VEC2"
    },
    {
      "bufferView": 0,
      "componentType": 5125,
      "count": 21399,
      "type": "SCALAR"
    },
    {
      "bufferView": 2,
      "byteOffset": 270288,
      "componentType": 5126,
      "count": 6165,
      "max": [
        5597.99169921875,
        9676.146484375,
        4298.24853515625
      ],
      "min": [
        0.0,
        0.0,
        0.0
      ],
      "type": "VEC3"
    },
    {
      "bufferView": 2,
      "byteOffset": 344268,
      "componentType": 5126,
      "count": 6165,
      "max": [
        1.0,
        1.0,
        1.0
      ],
      "min": [
        -1.0,
        -1.0,
        -1.0
      ],
      "type": "VEC3"
    },
    {
      "bufferView": 3,
      "byteOffset": 180192,
      "componentType": 5126,
      "count": 6165,
      "max": [
        1.0,
        1.0,
        1.0,
        1.0
      ],
      "min": [
        -1.0,
        -1.0,
        -1.0,
        -1.0
      ],
      "type": "VEC4"
    },
    {
      "bufferView": 1,
      "byteOffset": 90096,
      "componentType": 5126,
      "count": 6165,
      "max": [
        0.9952160120010376,
        0.9953240156173706
      ],
      "min": [
        0.002230999991297722,
        0.007435999810695648
      ],
      "type": "VEC2"
    },
    {
      "bufferView": 0,
      "byteOffset": 85596,
      "componentType": 5125,
      "count": 14595,
      "type": "SCALAR"
    },
    {
      "bufferView": 2,
      "byteOffset": 418248,
      "componentType": 5126,
      "count": 5399,
      "max": [
        4488.1962890625,
        8733.7978515625,
        3543.46044921875
      ],
      "min": [
        1114.26416015625,
        0.0,
        891.20947265625
      ],
      "type": "VEC3"
    },
    {
      "bufferView": 2,
      "byteOffset": 483036,
      "componentType": 5126,
      "count": 5399,
      "max": [
        1.0,
        1.0,
        1.0
      ],
      "min": [
        -1.0,
        -1.0,
        -1.0
      ],
      "type": "VEC3"
    },
    {
      "bufferView": 3,
      "byteOffset": 278832,
      "componentType": 5126,
      "count": 5399,
      "max": [
        1.0,
        1.0,
        1.0,
        1.0
      ],
      "min": [
        -1.0,
        -1.0,
        -1.0,
        -1.0
      ],
      "type": "VEC4"
    },
    {
      "bufferView": 1,
      "byteOffset": 139416,
      "componentType": 5126,
      "count": 5399,
      "max": [
        0.9528409838676453,
        0.9931020140647888
      ],
      "min": [
        0.0036359999794512987,
        0.019213000312447548
      ],
      "type": "VEC2"
    },
    {
      "bufferView": 0,
      "byteOffset": 143976,
      "componentType": 5125,
      "count": 14982,
      "type": "SCALAR"
    },
    {
      "bufferView": 2,
      "byteOffset": 547824,
      "componentType": 5126,
      "count": 4212,
      "max": [
        4343.470703125,
        8770.359375,
        3662.82568359375
      ],
      "min": [
        1254.5208740234375,
        1874.604248046875,
        1514.5623779296875
      ],
      "type": "VEC3"
    },
    {
      "bufferView": 2,
      "byteOffset": 598368,
      "componentType": 5126,
      "count": 4212,
      "max": [
        1.0,
        1.0,
        1.0
      ],
      "min": [
        -1.0,
        -1.0,
        -1.0
      ],
      "type": "VEC3"
    },
    {
      "bufferView": 3,
      "byteOffset": 365216,
      "componentType": 5126,
      "count": 4212,
      "max": [
        1.0,
        1.0,
        1.0,
        1.0
      ],
      "min": [
        -1.0,
        -1.0,
        -1.0,
        -1.0
      ],
      "type": "VEC4"
    },
    {
      "bufferView": 1,
      "byteOffset": 182608,
      "componentType": 5126,
      "count": 4212,
      "max": [
        0.909745991230011,
        0.9698129892349243
      ],
      "min": [
        0.17684300243854523,
        0.05231799930334091
      ],
      "type": "VEC2"
    },
    {
      "bufferView": 0,
      "byteOffset": 203904,
      "componentType": 5125,
      "count": 14220,
      "type": "SCALAR"
    },
    {
      "bufferView": 2,
      "byteOffset": 648912,
      "componentType": 5126,
      "count": 2814,
      "max": [
        4737.818359375,
        7586.9912109375,
        3584.031005859375
      ],
      "min": [
        860.1734619140625,
        1624.463623046875,
        1001.65478515625
      ],
      "type": "VEC3"
    },
    {
      "bufferView": 2,
      "byteOffset": 682680,
      "componentType": 5126,
      "count": 2814,
      "max": [
        1.0,
        1.0,
        1.0
      ],
      "min": [
        -1.0,
        -1.0,
        -1.0
      ],
      "type": "VEC3"
    },
    {
      "bufferView": 3,
      "byteOffset": 432608,
      "componentType": 5126,
      "count": 2814,
      "max": [
        1.0,
        1.0,
        1.0,
        1.0
      ],
      "min": [
        -1.0,
        -1.0,
        -1.0,
        -1.0
      ],
      "type": "VEC4"
    },
    {
      "bufferView": 1,
      "byteOffset": 216304,
      "componentType": 5126,
      "count": 2814,
      "max": [
        0.8866419792175293,
        0.9797099828720093
      ],
      "min": [
        0.11628899723291397,
        0.0075610000640153885
      ],
      "type": "VEC2"
    },
    {
      "bufferView": 0,
      "byteOffset": 260784,
      "componentType": 5125,
      "count": 13614,
      "type": "SCALAR"
    }
  ],
  "asset": {
    "extras": {
      "author": "light_ua (https://sketchfab.com/light_ua)",
      "license": "CC-BY-4.0 (http://creativecommons.org/licenses/by/4.0/)",
      "source": "https://sketchfab.com/3d-models/space-ship-afca6ab74ff54a6fbe9165c31cfb1000",
      "title": "Space ship"
    },
    "generator": "Sketchfab-12.66.0",
    "version": "2.0"
  },
  "bufferViews": [
    {
      "buffer": 0,
      "byteLength": 315240,
      "name": "floatBufferViews",
      "target": 34963
    },
    {
      "buffer": 0,
      "byteLength": 238816,
      "byteOffset": 315240,
      "byteStride": 8,
      "name": "floatBufferViews",
      "target": 34962
    },
    {
      "buffer": 0,
      "byteLength": 716448,
      "byteOffset": 554056,
      "byteStride": 12,
      "name": "floatBufferViews",
      "target": 34962
    },
    {
      "buffer": 0,
      "byteLength": 477632,
      "byteOffset": 1270504,
      "byteStride": 16,
      "name": "floatBufferViews",
      "target": 34962
    }
  ],
  "buffers": [
    {
      "byteLength": 1748136,
      "uri": "scene.bin"
    }
  ],
  "images": [
    {
      "uri": "textures/blinn3SG_baseColor.jpeg"
    },
    {
      "uri": "textures/blinn3SG_metallicRoughness.png"
    },
    {
      "uri": "textures/blinn3SG_emissive.jpeg"
    },
    {
      "uri": "textures/blinn3SG_normal.png"
    }
  ],
  "materials": [
    {
      "emissiveFactor": [
        1.0,
        1.0,
        1.0
      ],
      "emissiveTexture": {
        "index": 2
      },
      "name": "blinn3SG",
      "normalTexture": {
        "index": 3
      },
      "pbrMetallicRoughness": {
        "baseColorTexture": {
          "index": 0
        },
        "metallicRoughnessTexture": {
          "index": 1
        }
      }
    }
  ],
  "meshes": [
    {
      "name": "Object_0",
      "primitives": [
        {
          "attributes": {
            "NORMAL": 1,
            "POSITION": 0,
            "TANGENT": 2,
            "TEXCOORD_0": 3
          },
          "indices": 4,
          "material": 0,
          "mode": 4
        }
      ]
    },
    {
      "name": "Object_1",
      "primitives": [
        {
          "attributes": {
            "NORMAL": 6,
            "POSITION": 5,
            "TANGENT": 7,
            "TEXCOORD_0": 8
          },
          "indices": 9,
          "material": 0,
          "mode": 4
        }
      ]
    },
    {
      "name": "Object_2",
      "primitives": [
        {
          "attributes": {
            "NORMAL": 11,
            "POSITION": 10,
            "TANGENT": 12,
            "TEXCOORD_0": 13
          },
          "indices": 14,
          "material": 0,
          "mode": 4
        }
      ]
    },
    {
      "name": "Object_3",
      "primitives": [
        {
          "attributes": {
            "NORMAL": 16,
            "POSITION": 15,
            "TANGENT": 17,
            "TEXCOORD_0": 18
          },
          "indices": 19,
          "material": 0,
          "mode": 4
        }
      ]
    },
    {
      "name": "Object_4",
      "primitives": [
        {
          "attributes": {
            "NORMAL": 21,
            "POSITION": 20,
            "TANGENT": 22,
            "TEXCOORD_0": 23
          },
          "indices": 24,
          "material": 0,
          "mode": 4
        }
      ]
    }
  ],
  "nodes": [
    {
      "children": [
        1
      ],
      "matrix": [
        1.0,
        0.0,
        0.0,
        0.0,
        0.0,
        2.220446049250313e-16,
        -1.0,
        0.0,
        0.0,
        1.0,
        2.220446049250313e-16,
        0.0,
        0.0,
        0.0,
        0.0,
        1.0
      ],
      "name": "Sketchfab_model"
    },
    {
      "children": [
        2
      ],
      "matrix": [
        1.0,
        0.0,
        0.0,
        0.0,
        0.0,
        1.0,
        0.0,
        0.0,
        0.0,
        0.0,
        1.0,
        0.0,
        -2798.995849609375,
        -4245.685546875,
        13.106536865234375,
        1.0
      ],
      "name": "spaceship.obj.cleaner.gles"
    },
    {
      "children": [
        3,
        4,
        5,
        6,
        7
      ],
      "name": "Object_2"
    },
    {
      "mesh": 0,
      "name": "Object_3"
    },
    {
      "mesh": 1,
      "name": "Object_4"
    },
    {
      "mesh": 2,
      "name": "Object_5"
    },
    {
      "mesh": 3,
      "name": "Object_6"
    },
    {
      "mesh": 4,
      "name": "Object_7"
    }
  ],
  "samplers": [
    {
      "magFilter": 9729,
      "minFilter": 9987,
      "wrapS": 10497,
      "wrapT": 10497
    }
  ],
  "scene": 0,
  "scenes": [
    {
      "name": "Sketchfab_Scene",
      "nodes": [
        0
      ]
    }
  ],
  "textures": [
    {
      "sampler": 0,
      "source": 0
    },
    {
      "sampler": 0,
      "source": 1
    },
    {
      "sampler": 0,
      "source": 2
    },
    {
      "sampler": 0,
      "source": 3
    }
  ]
}
