{
  "asset": {
    "generator": "gltfeditor.com",
    "version": "2.0"
  },
  "buffers": [
    {
      "uri": "data:application/octet-stream;base64,",
      "byteLength": 66544
    }
  ],
  "bufferViews": [
    {
      "buffer": 0,
      "byteOffset": 7396,
      "byteLength": 36960,
      "target": 34962,
      "byteStride": 20
    },
    {
      "buffer": 0,
      "byteOffset": 0,
      "byteLength": 7392,
      "target": 34963
    },
    {
      "buffer": 0,
      "byteOffset": 44360,
      "byteLength": 11088,
      "target": 34962,
      "byteStride": 12
    },
    {
      "buffer": 0,
      "byteOffset": 55452,
      "byteLength": 11088,
      "target": 34962,
      "byteStride": 12
    }
  ],
  "accessors": [
    {
      "bufferView": 0,
      "byteOffset": 0,
      "componentType": 5126,
      "normalized": false,
      "count": 1540,
      "max": [
        362.9554138183594,
        362.5409851074219,
        0
      ],
      "min": [
        0.12729999423027039,
        -0.4584999978542328,
        -93
      ],
      "type": "VEC3"
    },
    {
      "bufferView": 0,
      "byteOffset": 12,
      "componentType": 5126,
      "normalized": false,
      "count": 1540,
      "max": [
        1,
        0
      ],
      "min": [
        0,
        -1
      ],
      "type": "VEC2"
    },
    {
      "bufferView": 1,
      "byteOffset": 0,
      "componentType": 5123,
      "normalized": false,
      "count": 1848,
      "max": [
        1539
      ],
      "min": [
        0
      ],
      "type": "SCALAR"
    },
    {
      "bufferView": 2,
      "byteOffset": 0,
      "componentType": 5126,
      "normalized": false,
      "count": 774,
      "max": [
        362.9554138183594,
        362.5409851074219,
        0
      ],
      "min": [
        0.12729999423027039,
        -0.4584999978542328,
        0
      ],
      "type": "VEC3"
    },
    {
      "bufferView": 1,
      "byteOffset": 3696,
      "componentType": 5123,
      "normalized": false,
      "count": 924,
      "max": [
        773
      ],
      "min": [
        0
      ],
      "type": "SCALAR"
    },
    {
      "bufferView": 3,
      "byteOffset": 0,
      "componentType": 5126,
      "normalized": false,
      "count": 760,
      "max": [
        362.9554138183594,
        362.5409851074219,
        -93
      ],
      "min": [
        0.12729999423027039,
        -0.4584999978542328,
        -93
      ],
      "type": "VEC3"
    },
    {
      "bufferView": 1,
      "byteOffset": 5544,
      "componentType": 5123,
      "normalized": false,
      "count": 924,
      "max": [
        759
      ],
      "min": [
        0
      ],
      "type": "SCALAR"
    }
  ],
  "scene": 0,
  "scenes": [
    {
      "nodes": [
        0,
        1,
        2
      ],
      "name": "github"
    }
  ],
  "nodes": [
    {
      "name": "Extrude_NURBS",
      "matrix": [
        1,
        0,
        0,
        0,
        0,
        1,
        0,
        0,
        0,
        0,
        1,
        0,
        -180,
        0,
        50,
        1
      ],
      "mesh": 0
    },
    {
      "name": "Extrude_NURBS Cap_1",
      "matrix": [
        1,
        0,
        0,
        0,
        0,
        1,
        0,
        0,
        0,
        0,
        1,
        0,
        -180,
        0,
        50,
        1
      ],
      "mesh": 1
    },
    {
      "name": "Extrude_NURBS Cap_2",
      "matrix": [
        1,
        0,
        0,
        0,
        0,
        1,
        0,
        0,
        0,
        0,
        1,
        0,
        -180,
        0,
        50,
        1
      ],
      "mesh": 2
    }
  ],
  "meshes": [
    {
      "primitives": [
        {
          "attributes": {
            "POSITION": 0,
            "TEXCOORD_0": 1
          },
          "material": 0,
          "mode": 4,
          "indices": 2
        }
      ]
    },
    {
      "primitives": [
        {
          "attributes": {
            "POSITION": 3
          },
          "material": 0,
          "mode": 4,
          "indices": 4
        }
      ]
    },
    {
      "primitives": [
        {
          "attributes": {
            "POSITION": 5
          },
          "material": 0,
          "mode": 4,
          "indices": 6
        }
      ]
    }
  ],
  "materials": [
    {
      "pbrMetallicRoughness": {
        "baseColorFactor": [
          0.6392156862745098,
          0.6392156862745098,
          0.6392156862745098,
          1
        ],
        "metallicFactor": 1,
        "roughnessFactor": 1
      },
      "emissiveFactor": [
        0,
        0,
        0
      ],
      "alphaMode": "OPAQUE",
      "doubleSided": false
    }
  ]
}