{
  "asset": {
    "generator": "gltfeditor.com",
    "version": "2.0"
  },
  "buffers": [
    {
      "uri": "data:application/octet-stream;base64,",
      "byteLength": 103764
    }
  ],
  "bufferViews": [
    {
      "buffer": 0,
      "byteOffset": 7988,
      "byteLength": 10800,
      "target": 34962,
      "byteStride": 24
    },
    {
      "buffer": 0,
      "byteOffset": 0,
      "byteLength": 7984,
      "target": 34963
    },
    {
      "buffer": 0,
      "byteOffset": 18792,
      "byteLength": 23256,
      "target": 34962,
      "byteStride": 24
    },
    {
      "buffer": 0,
      "byteOffset": 42052,
      "byteLength": 15480,
      "target": 34962,
      "byteStride": 24
    },
    {
      "buffer": 0,
      "byteOffset": 57536,
      "byteLength": 46224,
      "target": 34962,
      "byteStride": 24
    }
  ],
  "accessors": [
    {
      "bufferView": 0,
      "byteOffset": 0,
      "componentType": 5126,
      "normalized": false,
      "count": 434,
      "max": [
        4.0442118644714355,
        13.067358016967773,
        0
      ],
      "min": [
        3.5411360263824463,
        12.563920974731445,
        -1
      ],
      "type": "VEC3"
    },
    {
      "bufferView": 0,
      "byteOffset": 12,
      "componentType": 5126,
      "normalized": false,
      "count": 434,
      "max": [
        0.9990745186805725,
        0.8870301246643066,
        1.0000044107437134
      ],
      "min": [
        -0.9971045851707458,
        -0.9999379515647888,
        -1.0000044107437134
      ],
      "type": "VEC3"
    },
    {
      "bufferView": 1,
      "byteOffset": 0,
      "componentType": 5123,
      "normalized": false,
      "count": 450,
      "max": [
        433
      ],
      "min": [
        0
      ],
      "type": "SCALAR"
    },
    {
      "bufferView": 2,
      "byteOffset": 0,
      "componentType": 5126,
      "normalized": false,
      "count": 917,
      "max": [
        4.007997989654541,
        12.329183578491211,
        0
      ],
      "min": [
        3.5775320529937744,
        10.873132705688477,
        -1
      ],
      "type": "VEC3"
    },
    {
      "bufferView": 2,
      "byteOffset": 12,
      "componentType": 5126,
      "normalized": false,
      "count": 917,
      "max": [
        1.000001072883606,
        0.9982025623321533,
        1.0000044107437134
      ],
      "min": [
        -1.0000044107437134,
        -1.0000044107437134,
        -1.0000044107437134
      ],
      "type": "VEC3"
    },
    {
      "bufferView": 1,
      "byteOffset": 900,
      "componentType": 5123,
      "normalized": false,
      "count": 969,
      "max": [
        916
      ],
      "min": [
        0
      ],
      "type": "SCALAR"
    },
    {
      "bufferView": 3,
      "byteOffset": 0,
      "componentType": 5126,
      "normalized": false,
      "count": 611,
      "max": [
        4.0442118644714355,
        13.067358016967773,
        0
      ],
      "min": [
        1.8493460416793823,
        10.873132705688477,
        -1
      ],
      "type": "VEC3"
    },
    {
      "bufferView": 3,
      "byteOffset": 12,
      "componentType": 5126,
      "normalized": false,
      "count": 611,
      "max": [
        1.0000044107437134,
        0.9999987483024597,
        1.0000044107437134
      ],
      "min": [
        -0.9999903440475464,
        -0.2222011834383011,
        -1.0000044107437134
      ],
      "type": "VEC3"
    },
    {
      "bufferView": 1,
      "byteOffset": 2840,
      "componentType": 5123,
      "normalized": false,
      "count": 645,
      "max": [
        610
      ],
      "min": [
        0
      ],
      "type": "SCALAR"
    },
    {
      "bufferView": 4,
      "byteOffset": 0,
      "componentType": 5126,
      "normalized": false,
      "count": 1841,
      "max": [
        3.259788990020752,
        12.366098403930664,
        0
      ],
      "min": [
        1.8493460416793823,
        10.875162124633789,
        -1
      ],
      "type": "VEC3"
    },
    {
      "bufferView": 4,
      "byteOffset": 12,
      "componentType": 5126,
      "normalized": false,
      "count": 1841,
      "max": [
        1.0000044107437134,
        1.0000039339065552,
        1.0000044107437134
      ],
      "min": [
        -1.0000004768371582,
        -1.0000042915344238,
        -1.0000044107437134
      ],
      "type": "VEC3"
    },
    {
      "bufferView": 1,
      "byteOffset": 4132,
      "componentType": 5123,
      "normalized": false,
      "count": 1926,
      "max": [
        1840
      ],
      "min": [
        0
      ],
      "type": "SCALAR"
    }
  ],
  "scene": 0,
  "scenes": [
    {
      "nodes": [
        0,
        1,
        2,
        3
      ],
      "name": "linkedin"
    }
  ],
  "nodes": [
    {
      "name": "Logo.012",
      "matrix": [
        1,
        0,
        0,
        0,
        0,
        1,
        0,
        0,
        0,
        0,
        1,
        0,
        -3,
        -10,
        0.5,
        1
      ],
      "mesh": 0
    },
    {
      "name": "Logo.002",
      "matrix": [
        1,
        0,
        0,
        0,
        0,
        1,
        0,
        0,
        0,
        0,
        1,
        0,
        -3,
        -10,
        0.5,
        1
      ],
      "mesh": 1
    },
    {
      "name": "Logo.001",
      "matrix": [
        1,
        0,
        0,
        0,
        0,
        1,
        0,
        0,
        0,
        0,
        1,
        0,
        -3,
        -10,
        0.5,
        1
      ],
      "mesh": 2
    },
    {
      "name": "Logo",
      "matrix": [
        1,
        0,
        0,
        0,
        0,
        1,
        0,
        0,
        0,
        0,
        1,
        0,
        -3,
        -10,
        0.5,
        1
      ],
      "mesh": 3
    }
  ],
  "meshes": [
    {
      "primitives": [
        {
          "attributes": {
            "POSITION": 0,
            "NORMAL": 1
          },
          "material": 0,
          "mode": 4,
          "indices": 2
        }
      ]
    },
    {
      "primitives": [
        {
          "attributes": {
            "POSITION": 3,
            "NORMAL": 4
          },
          "material": 0,
          "mode": 4,
          "indices": 5
        }
      ]
    },
    {
      "primitives": [
        {
          "attributes": {
            "POSITION": 6,
            "NORMAL": 7
          },
          "material": 0,
          "mode": 4,
          "indices": 8
        }
      ]
    },
    {
      "primitives": [
        {
          "attributes": {
            "POSITION": 9,
            "NORMAL": 10
          },
          "material": 0,
          "mode": 4,
          "indices": 11
        }
      ]
    }
  ],
  "materials": [
    {
      "pbrMetallicRoughness": {
        "baseColorFactor": [
          0,
          0.4666666666666667,
          0.7098039215686275,
          1
        ],
        "metallicFactor": 1,
        "roughnessFactor": 1
      },
      "emissiveFactor": [
        0,
        0,
        0
      ],
      "alphaMode": "OPAQUE",
      "doubleSided": false
    }
  ]
}