{
  "asset": {
    "generator": "gltfeditor.com",
    "version": "2.0"
  },
  "buffers": [
    {
      "uri": "data:application/octet-stream;base64,",
      "byteLength": 865652
    }
  ],
  "bufferViews": [
    {
      "buffer": 0,
      "byteOffset": 66592,
      "byteLength": 799056,
      "target": 34962,
      "byteStride": 24
    },
    {
      "buffer": 0,
      "byteOffset": 0,
      "byteLength": 66588,
      "target": 34963
    }
  ],
  "accessors": [
    {
      "bufferView": 0,
      "byteOffset": 0,
      "componentType": 5126,
      "normalized": false,
      "count": 32589,
      "max": [
        4.080422401428223,
        0.5,
        0
      ],
      "min": [
        0.00020033262262586504,
        0,
        -5
      ],
      "type": "VEC3"
    },
    {
      "bufferView": 0,
      "byteOffset": 12,
      "componentType": 5126,
      "normalized": false,
      "count": 32589,
      "max": [
        1.0000041723251343,
        1.0000044107437134,
        0.9999909400939941
      ],
      "min": [
        -0.9999920129776001,
        -1.0000044107437134,
        -0.9999328255653381
      ],
      "type": "VEC3"
    },
    {
      "bufferView": 1,
      "byteOffset": 0,
      "componentType": 5123,
      "normalized": false,
      "count": 33294,
      "max": [
        32588
      ],
      "min": [
        0
      ],
      "type": "SCALAR"
    }
  ],
  "scene": 0,
  "scenes": [
    {
      "nodes": [
        0
      ],
      "name": "twitter"
    }
  ],
  "nodes": [
    {
      "matrix": [
        4.172324281626061e-7,
        -1,
        -2.980239699468257e-8,
        0,
        3.8743019104003906e-7,
        0,
        1,
        0,
        -0.9999998807907104,
        -3.8743016261832963e-7,
        4.1723239974089665e-7,
        0,
        -2,
        1,
        0,
        1
      ],
      "mesh": 0
    }
  ],
  "meshes": [
    {
      "primitives": [
        {
          "attributes": {
            "POSITION": 0,
            "NORMAL": 1
          },
          "material": 0,
          "mode": 4,
          "indices": 2
        }
      ]
    }
  ],
  "materials": [
    {
      "pbrMetallicRoughness": {
        "baseColorFactor": [
          0,
          0.6745098039215687,
          0.9333333333333333,
          1
        ],
        "metallicFactor": 1,
        "roughnessFactor": 1
      },
      "emissiveFactor": [
        0,
        0,
        0
      ],
      "alphaMode": "OPAQUE",
      "doubleSided": false
    }
  ]
}