{
  "accessors": [
    {
      "bufferView": 2,
      "componentType": 5126,
      "count": 464,
      "max": [
        0.4024643003940582,
        -4.658968925476074,
        5.6887102127075195
      ],
      "min": [
        -0.40253540873527527,
        -6.7489728927612305,
        4.965211868286133
      ],
      "type": "VEC3"
    },
    {
      "bufferView": 2,
      "byteOffset": 5568,
      "componentType": 5126,
      "count": 464,
      "max": [
        0.0,
        1.0,
        0.0
      ],
      "min": [
        0.0,
        -1.0,
        0.0
      ],
      "type": "VEC3"
    },
    {
      "bufferView": 1,
      "componentType": 5126,
      "count": 464,
      "max": [
        0.96875,
        0.03125
      ],
      "min": [
        0.21875,
        0.03125
      ],
      "type": "VEC2"
    },
    {
      "bufferView": 0,
      "componentType": 5125,
      "count": 1308,
      "type": "SCALAR"
    },
    {
      "bufferView": 2,
      "byteOffset": 11136,
      "componentType": 5126,
      "count": 9291,
      "max": [
        7.180037021636963,
        7.688974857330322,
        7.694246768951416
      ],
      "min": [
        -1.987534999847412,
        -8.758101463317871,
        3.4879329204559326
      ],
      "type": "VEC3"
    },
    {
      "bufferView": 2,
      "byteOffset": 122628,
      "componentType": 5126,
      "count": 9291,
      "max": [
        1.0,
        1.0,
        1.0
      ],
      "min": [
        -1.0,
        -1.0,
        -1.0
      ],
      "type": "VEC3"
    },
    {
      "bufferView": 1,
      "byteOffset": 3712,
      "componentType": 5126,
      "count": 9291,
      "max": [
        0.84375,
        0.09375
      ],
      "min": [
        0.03125,
        0.03125
      ],
      "type": "VEC2"
    },
    {
      "bufferView": 0,
      "byteOffset": 5232,
      "componentType": 5125,
      "count": 28977,
      "type": "SCALAR"
    },
    {
      "bufferView": 2,
      "byteOffset": 234120,
      "componentType": 5126,
      "count": 9917,
      "max": [
        2.144315004348755,
        7.750471115112305,
        6.942258834838867
      ],
      "min": [
        -1.987534999847412,
        -7.2519707679748535,
        3.0716779232025146
      ],
      "type": "VEC3"
    },
    {
      "bufferView": 2,
      "byteOffset": 353124,
      "componentType": 5126,
      "count": 9917,
      "max": [
        1.0,
        1.0,
        1.0
      ],
      "min": [
        -1.0,
        -1.0,
        -1.0
      ],
      "type": "VEC3"
    },
    {
      "bufferView": 1,
      "byteOffset": 78040,
      "componentType": 5126,
      "count": 9917,
      "max": [
        0.90625,
        0.09375
      ],
      "min": [
        0.03125,
        0.03125
      ],
      "type": "VEC2"
    },
    {
      "bufferView": 0,
      "byteOffset": 121140,
      "componentType": 5125,
      "count": 30174,
      "type": "SCALAR"
    },
    {
      "bufferView": 2,
      "byteOffset": 472128,
      "componentType": 5126,
      "count": 9217,
      "max": [
        4.824047088623047,
        9.2523832321167,
        6.9247589111328125
      ],
      "min": [
        -2.197535991668701,
        -9.713927268981934,
        2.863600969314575
      ],
      "type": "VEC3"
    },
    {
      "bufferView": 2,
      "byteOffset": 582732,
      "componentType": 5126,
      "count": 9217,
      "max": [
        1.0,
        1.0,
        1.0
      ],
      "min": [
        -1.0,
        -1.0,
        -1.0
      ],
      "type": "VEC3"
    },
    {
      "bufferView": 1,
      "byteOffset": 157376,
      "componentType": 5126,
      "count": 9217,
      "max": [
        0.84375,
        0.09375
      ],
      "min": [
        0.03125,
        0.03125
      ],
      "type": "VEC2"
    },
    {
      "bufferView": 0,
      "byteOffset": 241836,
      "componentType": 5125,
      "count": 29343,
      "type": "SCALAR"
    },
    {
      "bufferView": 2,
      "byteOffset": 693336,
      "componentType": 5126,
      "count": 8893,
      "max": [
        1.6959580183029175,
        9.2523832321167,
        7.694246768951416
      ],
      "min": [
        -7.0812859535217285,
        -11.038880348205566,
        2.863600969314575
      ],
      "type": "VEC3"
    },
    {
      "bufferView": 2,
      "byteOffset": 800052,
      "componentType": 5126,
      "count": 8893,
      "max": [
        1.0,
        1.0,
        1.0
      ],
      "min": [
        -1.0,
        -1.0,
        -1.0
      ],
      "type": "VEC3"
    },
    {
      "bufferView": 1,
      "byteOffset": 231112,
      "componentType": 5126,
      "count": 8893,
      "max": [
        0.90625,
        0.09375
      ],
      "min": [
        0.03125,
        0.03125
      ],
      "type": "VEC2"
    },
    {
      "bufferView": 0,
      "byteOffset": 359208,
      "componentType": 5125,
      "count": 29820,
      "type": "SCALAR"
    },
    {
      "bufferView": 2,
      "byteOffset": 906768,
      "componentType": 5126,
      "count": 9022,
      "max": [
        0.7250013947486877,
        10.413920402526855,
        6.732748985290527
      ],
      "min": [
        -7.180037021636963,
        -10.655150413513184,
        3.2501940727233887
      ],
      "type": "VEC3"
    },
    {
      "bufferView": 2,
      "byteOffset": 1015032,
      "componentType": 5126,
      "count": 9022,
      "max": [
        1.0,
        1.0,
        1.0
      ],
      "min": [
        -1.0,
        -1.0,
        -1.0
      ],
      "type": "VEC3"
    },
    {
      "bufferView": 1,
      "byteOffset": 302256,
      "componentType": 5126,
      "count": 9022,
      "max": [
        0.90625,
        0.09375
      ],
      "min": [
        0.03125,
        0.03125
      ],
      "type": "VEC2"
    },
    {
      "bufferView": 0,
      "byteOffset": 478488,
      "componentType": 5125,
      "count": 29616,
      "type": "SCALAR"
    },
    {
      "bufferView": 2,
      "byteOffset": 1123296,
      "componentType": 5126,
      "count": 9418,
      "max": [
        0.7646989226341248,
        10.940939903259277,
        5.339885234832764
      ],
      "min": [
        -4.3051018714904785,
        -8.514703750610352,
        3.242124080657959
      ],
      "type": "VEC3"
    },
    {
      "bufferView": 2,
      "byteOffset": 1236312,
      "componentType": 5126,
      "count": 9418,
      "max": [
        1.0,
        1.0,
        1.0
      ],
      "min": [
        -1.0,
        -1.0,
        -1.0
      ],
      "type": "VEC3"
    },
    {
      "bufferView": 1,
      "byteOffset": 374432,
      "componentType": 5126,
      "count": 9418,
      "max": [
        0.90625,
        0.09375
      ],
      "min": [
        0.03125,
        0.03125
      ],
      "type": "VEC2"
    },
    {
      "bufferView": 0,
      "byteOffset": 596952,
      "componentType": 5125,
      "count": 29901,
      "type": "SCALAR"
    },
    {
      "bufferView": 2,
      "byteOffset": 1349328,
      "componentType": 5126,
      "count": 4648,
      "max": [
        0.6225013732910156,
        9.486125946044922,
        4.872951984405518
      ],
      "min": [
        -7.062513828277588,
        -7.780032157897949,
        3.2784619331359863
      ],
      "type": "VEC3"
    },
    {
      "bufferView": 2,
      "byteOffset": 1405104,
      "componentType": 5126,
      "count": 4648,
      "max": [
        1.0,
        1.0,
        1.0
      ],
      "min": [
        -1.0,
        -1.0,
        -1.0
      ],
      "type": "VEC3"
    },
    {
      "bufferView": 1,
      "byteOffset": 449776,
      "componentType": 5126,
      "count": 4648,
      "max": [
        0.84375,
        0.09375
      ],
      "min": [
        0.03125,
        0.03125
      ],
      "type": "VEC2"
    },
    {
      "bufferView": 0,
      "byteOffset": 716556,
      "componentType": 5125,
      "count": 14466,
      "type": "SCALAR"
    },
    {
      "bufferView": 2,
      "byteOffset": 1460880,
      "componentType": 5126,
      "count": 9773,
      "max": [
        7.062533855438232,
        9.502873420715332,
        7.709242820739746
      ],
      "min": [
        -6.1745171546936035,
        -7.338996887207031,
        2.888598918914795
      ],
      "type": "VEC3"
    },
    {
      "bufferView": 2,
      "byteOffset": 1578156,
      "componentType": 5126,
      "count": 9773,
      "max": [
        1.0,
        1.0,
        1.0
      ],
      "min": [
        -1.0,
        -1.0,
        -1.0
      ],
      "type": "VEC3"
    },
    {
      "bufferView": 1,
      "byteOffset": 486960,
      "componentType": 5126,
      "count": 9773,
      "max": [
        0.84375,
        0.09375
      ],
      "min": [
        0.03125,
        0.03125
      ],
      "type": "VEC2"
    },
    {
      "bufferView": 0,
      "byteOffset": 774420,
      "componentType": 5125,
      "count": 26382,
      "type": "SCALAR"
    },
    {
      "bufferView": 2,
      "byteOffset": 1695432,
      "componentType": 5126,
      "count": 9855,
      "max": [
        6.174516201019287,
        9.024177551269531,
        5.437615871429443
      ],
      "min": [
        -3.3685479164123535,
        -7.170152187347412,
        2.918026924133301
      ],
      "type": "VEC3"
    },
    {
      "bufferView": 2,
      "byteOffset": 1813692,
      "componentType": 5126,
      "count": 9855,
      "max": [
        1.0,
        1.0,
        1.0
      ],
      "min": [
        -1.0,
        -1.0,
        -1.0
      ],
      "type": "VEC3"
    },
    {
      "bufferView": 1,
      "byteOffset": 565144,
      "componentType": 5126,
      "count": 9855,
      "max": [
        0.65625,
        0.09375
      ],
      "min": [
        0.03125,
        0.03125
      ],
      "type": "VEC2"
    },
    {
      "bufferView": 0,
      "byteOffset": 879948,
      "componentType": 5125,
      "count": 25959,
      "type": "SCALAR"
    },
    {
      "bufferView": 2,
      "byteOffset": 1931952,
      "componentType": 5126,
      "count": 9056,
      "max": [
        4.112569808959961,
        8.533039093017578,
        5.571564197540283
      ],
      "min": [
        -4.112570762634277,
        -2.5798308849334717,
        3.321026086807251
      ],
      "type": "VEC3"
    },
    {
      "bufferView": 2,
      "byteOffset": 2040624,
      "componentType": 5126,
      "count": 9056,
      "max": [
        1.0,
        1.0,
        1.0
      ],
      "min": [
        -1.0,
        -1.0,
        -1.0
      ],
      "type": "VEC3"
    },
    {
      "bufferView": 1,
      "byteOffset": 643984,
      "componentType": 5126,
      "count": 9056,
      "max": [
        0.65625,
        0.09375
      ],
      "min": [
        0.03125,
        0.03125
      ],
      "type": "VEC2"
    },
    {
      "bufferView": 0,
      "byteOffset": 983784,
      "componentType": 5125,
      "count": 21786,
      "type": "SCALAR"
    },
    {
      "bufferView": 2,
      "byteOffset": 2149296,
      "componentType": 5126,
      "count": 9625,
      "max": [
        6.379550933837891,
        9.24932861328125,
        7.709242820739746
      ],
      "min": [
        -7.062534809112549,
        -5.8489580154418945,
        2.888598918914795
      ],
      "type": "VEC3"
    },
    {
      "bufferView": 2,
      "byteOffset": 2264796,
      "componentType": 5126,
      "count": 9625,
      "max": [
        1.0,
        1.0,
        1.0
      ],
      "min": [
        -1.0,
        -1.0,
        -1.0
      ],
      "type": "VEC3"
    },
    {
      "bufferView": 1,
      "byteOffset": 716432,
      "componentType": 5126,
      "count": 9625,
      "max": [
        0.84375,
        0.09375
      ],
      "min": [
        0.03125,
        0.03125
      ],
      "type": "VEC2"
    },
    {
      "bufferView": 0,
      "byteOffset": 1070928,
      "componentType": 5125,
      "count": 24687,
      "type": "SCALAR"
    },
    {
      "bufferView": 2,
      "byteOffset": 2380296,
      "componentType": 5126,
      "count": 7964,
      "max": [
        3.8245620727539063,
        7.435459136962891,
        5.4017438888549805
      ],
      "min": [
        -2.2071409225463867,
        -6.5971879959106445,
        3.8790829181671143
      ],
      "type": "VEC3"
    },
    {
      "bufferView": 2,
      "byteOffset": 2475864,
      "componentType": 5126,
      "count": 7964,
      "max": [
        1.0,
        1.0,
        1.0
      ],
      "min": [
        -1.0,
        -1.0,
        -1.0
      ],
      "type": "VEC3"
    },
    {
      "bufferView": 1,
      "byteOffset": 793432,
      "componentType": 5126,
      "count": 7964,
      "max": [
        0.21875,
        0.03125
      ],
      "min": [
        0.03125,
        0.03125
      ],
      "type": "VEC2"
    },
    {
      "bufferView": 0,
      "byteOffset": 1169676,
      "componentType": 5125,
      "count": 16896,
      "type": "SCALAR"
    },
    {
      "bufferView": 2,
      "byteOffset": 2571432,
      "componentType": 5126,
      "count": 275,
      "max": [
        0.37746429443359375,
        -4.058969020843506,
        5.663710117340088
      ],
      "min": [
        -0.3775354027748108,
        -7.04896879196167,
        4.821961879730225
      ],
      "type": "VEC3"
    },
    {
      "bufferView": 2,
      "byteOffset": 2574732,
      "componentType": 5126,
      "count": 275,
      "max": [
        0.9975450038909912,
        0.5237149596214294,
        0.15063680708408356
      ],
      "min": [
        -0.9979361295700073,
        -0.13945533335208893,
        -0.9982839226722717
      ],
      "type": "VEC3"
    },
    {
      "bufferView": 1,
      "byteOffset": 857144,
      "componentType": 5126,
      "count": 275,
      "max": [
        0.96875,
        0.03125
      ],
      "min": [
        0.21875,
        0.03125
      ],
      "type": "VEC2"
    },
    {
      "bufferView": 0,
      "byteOffset": 1237260,
      "componentType": 5125,
      "count": 777,
      "type": "SCALAR"
    },
    {
      "bufferView": 2,
      "byteOffset": 2578032,
      "componentType": 5126,
      "count": 474,
      "max": [
        0.4024643003940582,
        -4.058969020843506,
        5.6887102127075195
      ],
      "min": [
        -0.40253540873527527,
        -7.04896879196167,
        4.821961879730225
      ],
      "type": "VEC3"
    },
    {
      "bufferView": 2,
      "byteOffset": 2583720,
      "componentType": 5126,
      "count": 474,
      "max": [
        0.9976467490196228,
        1.0,
        0.9992007613182068
      ],
      "min": [
        -0.9976027607917786,
        -1.0,
        -0.14853043854236603
      ],
      "type": "VEC3"
    },
    {
      "bufferView": 1,
      "byteOffset": 859344,
      "componentType": 5126,
      "count": 474,
      "max": [
        0.96875,
        0.03125
      ],
      "min": [
        0.21875,
        0.03125
      ],
      "type": "VEC2"
    },
    {
      "bufferView": 0,
      "byteOffset": 1240368,
      "componentType": 5125,
      "count": 1695,
      "type": "SCALAR"
    }
  ],
  "asset": {
    "extras": {
      "author": "TGSuperTop (https://sketchfab.com/TGSuperTop)",
      "license": "CC-BY-4.0 (http://creativecommons.org/licenses/by/4.0/)",
      "source": "https://sketchfab.com/3d-models/sukhoi-su-27-flanker-model-1c88b32ec7ca4aeba6598ee10aee58d5",
      "title": "Sukhoi Su-27 flanker_model"
    },
    "generator": "Sketchfab-15.22.0",
    "version": "2.0"
  },
  "bufferViews": [
    {
      "buffer": 0,
      "byteLength": 1247148,
      "name": "floatBufferViews",
      "target": 34963
    },
    {
      "buffer": 0,
      "byteLength": 863136,
      "byteOffset": 1247148,
      "byteStride": 8,
      "name": "floatBufferViews",
      "target": 34962
    },
    {
      "buffer": 0,
      "byteLength": 2589408,
      "byteOffset": 2110284,
      "byteStride": 12,
      "name": "floatBufferViews",
      "target": 34962
    }
  ],
  "buffers": [
    {
      "byteLength": 4699692,
      "uri": "scene.bin"
    }
  ],
  "extensionsUsed": [
    "KHR_materials_specular"
  ],
  "images": [
    {
      "uri": "textures/PartMaterialClone_baseColor.png"
    },
    {
      "uri": "textures/PartMaterialClone_metallicRoughness.png"
    },
    {
      "uri": "textures/PartTransparentZWriteClone_baseColor.png"
    }
  ],
  "materials": [
    {
      "alphaMode": "BLEND",
      "doubleSided": true,
      "name": "DoNothingMaterialClone",
      "pbrMetallicRoughness": {
        "baseColorFactor": [
          0.6759127731810011,
          0.45485650428523017,
          0.45485650428523017,
          0.0
        ],
        "metallicFactor": 0.0
      }
    },
    {
      "doubleSided": true,
      "extensions": {
        "KHR_materials_specular": {
          "specularColorFactor": [
            1.0,
            1.0,
            1.0
          ],
          "specularFactor": 1.0
        }
      },
      "name": "PartMaterialClone",
      "pbrMetallicRoughness": {
        "baseColorTexture": {
          "index": 0
        },
        "metallicRoughnessTexture": {
          "index": 1
        },
        "roughnessFactor": 0.65
      }
    },
    {
      "alphaMode": "BLEND",
      "doubleSided": true,
      "name": "PartTransparentClone",
      "pbrMetallicRoughness": {
        "baseColorFactor": [
          0.003288347102893183,
          0.00046014919454830946,
          0.00046014919454830946,
          0.5
        ],
        "metallicFactor": 0.0,
        "roughnessFactor": 0.0
      }
    },
    {
      "alphaMode": "BLEND",
      "doubleSided": true,
      "name": "PartTransparentZWriteClone",
      "pbrMetallicRoughness": {
        "baseColorFactor": [
          1.0,
          1.0,
          1.0,
          0.3
        ],
        "baseColorTexture": {
          "index": 2
        },
        "metallicFactor": 0.0,
        "roughnessFactor": 0.0
      }
    }
  ],
  "meshes": [
    {
      "name": "Object_0",
      "primitives": [
        {
          "attributes": {
            "NORMAL": 1,
            "POSITION": 0,
            "TEXCOORD_0": 2
          },
          "indices": 3,
          "material": 0,
          "mode": 4
        }
      ]
    },
    {
      "name": "Object_1",
      "primitives": [
        {
          "attributes": {
            "NORMAL": 5,
            "POSITION": 4,
            "TEXCOORD_0": 6
          },
          "indices": 7,
          "material": 1,
          "mode": 4
        }
      ]
    },
    {
      "name": "Object_2",
      "primitives": [
        {
          "attributes": {
            "NORMAL": 9,
            "POSITION": 8,
            "TEXCOORD_0": 10
          },
          "indices": 11,
          "material": 1,
          "mode": 4
        }
      ]
    },
    {
      "name": "Object_3",
      "primitives": [
        {
          "attributes": {
            "NORMAL": 13,
            "POSITION": 12,
            "TEXCOORD_0": 14
          },
          "indices": 15,
          "material": 1,
          "mode": 4
        }
      ]
    },
    {
      "name": "Object_4",
      "primitives": [
        {
          "attributes": {
            "NORMAL": 17,
            "POSITION": 16,
            "TEXCOORD_0": 18
          },
          "indices": 19,
          "material": 1,
          "mode": 4
        }
      ]
    },
    {
      "name": "Object_5",
      "primitives": [
        {
          "attributes": {
            "NORMAL": 21,
            "POSITION": 20,
            "TEXCOORD_0": 22
          },
          "indices": 23,
          "material": 1,
          "mode": 4
        }
      ]
    },
    {
      "name": "Object_6",
      "primitives": [
        {
          "attributes": {
            "NORMAL": 25,
            "POSITION": 24,
            "TEXCOORD_0": 26
          },
          "indices": 27,
          "material": 1,
          "mode": 4
        }
      ]
    },
    {
      "name": "Object_7",
      "primitives": [
        {
          "attributes": {
            "NORMAL": 29,
            "POSITION": 28,
            "TEXCOORD_0": 30
          },
          "indices": 31,
          "material": 1,
          "mode": 4
        }
      ]
    },
    {
      "name": "Object_8",
      "primitives": [
        {
          "attributes": {
            "NORMAL": 33,
            "POSITION": 32,
            "TEXCOORD_0": 34
          },
          "indices": 35,
          "material": 1,
          "mode": 4
        }
      ]
    },
    {
      "name": "Object_9",
      "primitives": [
        {
          "attributes": {
            "NORMAL": 37,
            "POSITION": 36,
            "TEXCOORD_0": 38
          },
          "indices": 39,
          "material": 1,
          "mode": 4
        }
      ]
    },
    {
      "name": "Object_10",
      "primitives": [
        {
          "attributes": {
            "NORMAL": 41,
            "POSITION": 40,
            "TEXCOORD_0": 42
          },
          "indices": 43,
          "material": 1,
          "mode": 4
        }
      ]
    },
    {
      "name": "Object_11",
      "primitives": [
        {
          "attributes": {
            "NORMAL": 45,
            "POSITION": 44,
            "TEXCOORD_0": 46
          },
          "indices": 47,
          "material": 1,
          "mode": 4
        }
      ]
    },
    {
      "name": "Object_12",
      "primitives": [
        {
          "attributes": {
            "NORMAL": 49,
            "POSITION": 48,
            "TEXCOORD_0": 50
          },
          "indices": 51,
          "material": 1,
          "mode": 4
        }
      ]
    },
    {
      "name": "Object_13",
      "primitives": [
        {
          "attributes": {
            "NORMAL": 53,
            "POSITION": 52,
            "TEXCOORD_0": 54
          },
          "indices": 55,
          "material": 2,
          "mode": 4
        }
      ]
    },
    {
      "name": "Object_14",
      "primitives": [
        {
          "attributes": {
            "NORMAL": 57,
            "POSITION": 56,
            "TEXCOORD_0": 58
          },
          "indices": 59,
          "material": 3,
          "mode": 4
        }
      ]
    }
  ],
  "nodes": [
    {
      "children": [
        1
      ],
      "matrix": [
        1.0,
        0.0,
        0.0,
        0.0,
        0.0,
        2.220446049250313e-16,
        -1.0,
        0.0,
        0.0,
        1.0,
        2.220446049250313e-16,
        0.0,
        0.0,
        0.0,
        0.0,
        1.0
      ],
      "name": "Sketchfab_model"
    },
    {
      "children": [
        2,
        3,
        4,
        5,
        6,
        7,
        8,
        9,
        10,
        11,
        12,
        13,
        14,
        15,
        16
      ],
      "name": ".Su-273d_export.obj.cleaner.materialmerger.gles"
    },
    {
      "mesh": 0,
      "name": "Object_2"
    },
    {
      "mesh": 1,
      "name": "Object_3"
    },
    {
      "mesh": 2,
      "name": "Object_4"
    },
    {
      "mesh": 3,
      "name": "Object_5"
    },
    {
      "mesh": 4,
      "name": "Object_6"
    },
    {
      "mesh": 5,
      "name": "Object_7"
    },
    {
      "mesh": 6,
      "name": "Object_8"
    },
    {
      "mesh": 7,
      "name": "Object_9"
    },
    {
      "mesh": 8,
      "name": "Object_10"
    },
    {
      "mesh": 9,
      "name": "Object_11"
    },
    {
      "mesh": 10,
      "name": "Object_12"
    },
    {
      "mesh": 11,
      "name": "Object_13"
    },
    {
      "mesh": 12,
      "name": "Object_14"
    },
    {
      "mesh": 13,
      "name": "Object_15"
    },
    {
      "mesh": 14,
      "name": "Object_16"
    }
  ],
  "samplers": [
    {
      "magFilter": 9729,
      "minFilter": 9987,
      "wrapS": 10497,
      "wrapT": 10497
    }
  ],
  "scene": 0,
  "scenes": [
    {
      "name": "Sketchfab_Scene",
      "nodes": [
        0
      ]
    }
  ],
  "textures": [
    {
      "sampler": 0,
      "source": 0
    },
    {
      "sampler": 0,
      "source": 1
    },
    {
      "sampler": 0,
      "source": 2
    }
  ]
}
