<svg className="w-48" xmlns="http://www.w3.org/2000/svg" viewBox="0 0 3146.43 561.22">
    <g id="Layer_2" data-name="Layer 2">
        <g id="Layer_1-2" data-name="Layer 1">
            <path style="fill: #ff2b06" d="M0,0H310.62V81.66H206.4v249H104.22v-249H0Z" />
            <path style="fill: #ff2b06" d="M331.7,0H605.55v70.6H434.12v52.56h159v67.45h-159v65.19h176.4V330.7H331.7Z" />
            <path style="fill: #ff2b06"
                d="M623.73,0H775.54q44.9,0,72.53,12.18a118,118,0,0,1,45.68,35q18,22.79,26.16,53A245.79,245.79,0,0,1,928,164.23q0,53-12.07,82.22t-33.5,48.95q-21.44,19.74-46,26.28-33.62,9-60.91,9H623.73ZM725.92,74.9V255.58h25q32,0,45.56-7.1t21.21-24.81q7.66-17.71,7.67-57.41,0-52.56-17.15-72T751.41,74.9Z" />
            <path style="fill: #ff2b06"
                d="M942,0h70.85l36.85,64,35.85-64h70.15l-64.79,100.82,70.9,107.35h-72.28l-41.11-66.88-41.11,66.88H935.47l71.8-108.49Z" />
            <path d="M1446,2.74h43V331.39h-49.89L1272.05,65.91h-.92V331.39h-43V2.74h52.64l164.33,265.49h.92Z"
                style="fill: #fff" />
            <path d="M1614.42,331.39H1570V2.74h44.4Z" style="fill: #fff" />
            <path d="M1666.6,2.74h266.86V42.11H1822.23V331.39h-44.4V42.11H1666.6Z" style="fill: #fff" />
            <path d="M1950.85,2.74h266.86V42.11H2106.48V331.39h-44.4V42.11H1950.85Z" style="fill: #fff" />
            <path
                d="M2249.29,331.39H2209V92h38v39.82h.92c16-27.92,37.07-46.69,67.28-46.69a32.4,32.4,0,0,1,10.53,1.38v41.65h-15.1c-37.54,0-61.34,29.3-61.34,64.08Z"
                style="fill: #fff" />
            <path d="M2368.29,48.52V2.74h40.28V48.52Zm40.28,282.87h-40.28V92h40.28Z" style="fill: #fff" />
            <path
                d="M2623.24,172.56c-5-32-22.88-51.27-56.76-51.27-49.89,0-65.91,47.61-65.91,90.18,0,41.19,10.07,92,65.46,92,27,0,50.35-20.14,57.21-56.76h38.91c-4.12,38-27.46,91.55-97.5,91.55-67.28,0-107.11-50.81-107.11-119.93,0-74.15,35.71-133.2,114.9-133.2,62.7,0,86.51,45.78,89.71,87.43Z"
                style="fill: #fff" />
            <path
                d="M2902,331.39h-40.28V174.85c0-32.5-9.15-53.56-47.6-53.56-33,0-66.83,19.23-66.83,79.65V331.39H2707V2.74h40.28V124h.91c11.45-15.1,31.59-38.91,70-38.91,37.07,0,83.76,15.11,83.76,83.31Z"
                style="fill: #fff" />
            <path
                d="M3102,92h44.4c-27.92,78.27-55.39,156.54-86,234.82-38,97-42.12,102.53-93.84,102.53-5.95,0-10.53-1.83-16.94-3.66V389.07a70.61,70.61,0,0,0,24.26,4.12c21.06,0,23.35-5.95,42.57-55.39L2927.63,92h45.78L3037,287h.92Z"
                style="fill: #fff" />
            <path style="fill: #ff2b06"
                d="M31.93,457.85H57.16l13.13,22.81,12.77-22.81h25L85,493.76,110.21,532H84.47L69.83,508.17,55.19,532H29.6l25.57-38.63Z" />
            <path d="M249.29,445.84V430.48h16.22v15.36Zm0,86.21V458.5h16.22v73.55Z" style="fill: #fff" />
            <path
                d="M284.85,532.05V458.5h15.37v10.82l.28.28q7.83-13.08,22.91-13.09,12.22,0,19.13,6.41t6.9,18.63v50.5H333.22V485.82q0-16.5-14.37-16.5A16.35,16.35,0,0,0,306,474.87a20.06,20.06,0,0,0-4.91,13.79v43.39Z"
                style="fill: #fff" />
            <path
                d="M437.5,430.48V532.05H422.13V522.1h-.28Q415.73,534,399.09,534T373.2,522.66q-8.54-10.51-8.54-27.88,0-18.78,10-29.16,8.67-9.11,21.91-9.11,17.36,0,24.47,11.53h.28V430.48Zm-56.62,65.58q0,10.4,4.84,17.36,5.53,7.82,15.5,7.82A18.12,18.12,0,0,0,417,513q4.85-7.11,4.84-17.78,0-12.09-5.48-19t-14.86-6.9q-10.53,0-16.08,8.39Q380.89,484.82,380.88,496.06Z"
                style="fill: #fff" />
            <path
                d="M523.57,499.48H469.51q0,9.24,4.83,15.22,5.27,6.54,14.94,6.54,13.67,0,17.93-12.23h15.36a29.55,29.55,0,0,1-11.74,18.42A35.85,35.85,0,0,1,489.28,534q-16.93,0-26.46-10.66t-9.53-28q0-16.22,9.53-27.31,10.1-11.54,26-11.53,15.51,0,25.47,11.38,9.52,10.68,9.53,26.18C523.85,495.87,523.75,497.68,523.57,499.48Zm-54.06-10.67h37.84a21.88,21.88,0,0,0-5.48-13.8,16.6,16.6,0,0,0-13-5.69,18.24,18.24,0,0,0-13.65,5.55A20.15,20.15,0,0,0,469.51,488.81Z"
                style="fill: #fff" />
            <path
                d="M538.08,559.23V458.5h15.36v10h.28q6.56-11.94,22.77-11.95,16.63,0,25.89,11.53,8.54,10.53,8.53,27.59,0,16.08-7.68,26.61-8.67,11.81-24,11.8-17.36,0-24.61-11.52h-.29v36.71Zm56.62-63.88q0-10.67-5.13-18.07a17.78,17.78,0,0,0-15.22-8q-10,0-15.29,7t-5.34,19.06q0,11.38,5.55,18.64a18,18,0,0,0,15.08,7.25q10.24,0,15.79-8.11Q594.7,506.17,594.7,495.35Z"
                style="fill: #fff" />
            <path
                d="M693,499.48H638.94q0,9.24,4.83,15.22,5.26,6.54,14.94,6.54,13.66,0,17.93-12.23H692a29.55,29.55,0,0,1-11.74,18.42A35.85,35.85,0,0,1,658.71,534q-16.94,0-26.46-10.66t-9.53-28q0-16.22,9.53-27.31,10.1-11.54,26-11.53,15.5,0,25.46,11.38,9.53,10.68,9.53,26.18A51.59,51.59,0,0,1,693,499.48Zm-54.06-10.67h37.84A21.88,21.88,0,0,0,671.3,475a16.58,16.58,0,0,0-13-5.69,18.25,18.25,0,0,0-13.66,5.55A20.15,20.15,0,0,0,638.94,488.81Z"
                style="fill: #fff" />
            <path
                d="M707.08,532.05V458.5h15.36v10.82l.29.28q7.82-13.08,22.9-13.09,12.24,0,19.14,6.41t6.9,18.63v50.5H755.45V485.82q0-16.5-14.37-16.5a16.35,16.35,0,0,0-12.87,5.55,20,20,0,0,0-4.91,13.79v43.39Z"
                style="fill: #fff" />
            <path
                d="M859.72,430.48V532.05H844.36V522.1h-.28Q838,534,821.31,534t-25.89-11.38q-8.53-10.51-8.53-27.88,0-18.78,10-29.16,8.67-9.11,21.9-9.11,17.36,0,24.47,11.53h.29V430.48ZM803.1,496.06q0,10.4,4.84,17.36,5.55,7.82,15.51,7.82A18.15,18.15,0,0,0,839.24,513q4.83-7.11,4.84-17.78,0-12.09-5.48-19t-14.87-6.9q-10.53,0-16.07,8.39Q803.1,484.82,803.1,496.06Z"
                style="fill: #fff" />
            <path
                d="M945.79,499.48H891.73q0,9.24,4.84,15.22,5.26,6.54,14.94,6.54,13.65,0,17.92-12.23H944.8a29.55,29.55,0,0,1-11.74,18.42A35.87,35.87,0,0,1,911.51,534q-16.93,0-26.46-10.66t-9.54-28q0-16.22,9.54-27.31,10.1-11.54,26-11.53,15.51,0,25.46,11.38,9.54,10.68,9.54,26.18A51.6,51.6,0,0,1,945.79,499.48Zm-54.06-10.67h37.84A21.87,21.87,0,0,0,924.1,475a16.6,16.6,0,0,0-13-5.69,18.28,18.28,0,0,0-13.66,5.55A20.2,20.2,0,0,0,891.73,488.81Z"
                style="fill: #fff" />
            <path
                d="M959.88,532.05V458.5h15.36v10.82l.28.28q7.83-13.08,22.91-13.09,12.23,0,19.13,6.41t6.9,18.63v50.5h-16.22V485.82q0-16.5-14.36-16.5A16.36,16.36,0,0,0,981,474.87a20.06,20.06,0,0,0-4.91,13.79v43.39Z"
                style="fill: #fff" />
            <path
                d="M1035.84,470.6V458.5h12.24V436.45h16.21V458.5H1079v12.1h-14.66v39.26q0,5.7,1.14,7.54,1.56,2.57,6.69,2.56a30.34,30.34,0,0,0,6.83-.57v12.52l-10.53.85q-12,0-16.5-4.83-3.84-4-3.84-13.94V470.6Z"
                style="fill: #fff" />
            <path d="M1092.74,532.05V430.48H1109V532.05Z" style="fill: #fff" />
            <path
                d="M1148.08,531.77,1120.2,458.5H1138l19.21,54.92h.28l18.64-54.92H1193L1164.44,536q-4.83,13.08-8.53,17.64-6.12,7.53-17.5,7.54a73.75,73.75,0,0,1-11.24-.86V546.71a63.22,63.22,0,0,0,7.68,1c3.42,0,6-1,7.83-2.84,1.23-1.33,2.42-3.8,3.55-7.4Z"
                style="fill: #fff" />
            <path
                d="M1278.82,534q-17.35,0-27.46-10.95-9.67-10.53-9.67-27.88t9.89-28q9.89-10.74,27.24-10.74t27.46,11Q1316,478,1316,495.21t-9.67,27.88Q1296.17,534.05,1278.82,534Zm0-12.8a18.25,18.25,0,0,0,15.93-8.25q5-7.11,5-17.78t-5-17.64a19.5,19.5,0,0,0-31.86,0q-5,7.11-5,17.64t5,17.78A18.25,18.25,0,0,0,1278.82,521.24Z"
                style="fill: #fff" />
            <path
                d="M1331.17,532.05V458.5h15.22v14.23h.29q1.41-6.12,7.82-11.17a21.72,21.72,0,0,1,13.66-5.05c1.23,0,3.27.15,6.12.43v15.65c-3.8-.47-6.12-.71-7-.71a17.4,17.4,0,0,0-14.08,6.54q-5.84,6.82-5.83,18.64v35Z"
                style="fill: #fff" />
            <path
                d="M1451,458.5v69.71q0,33-36.13,33-12.81,0-21.48-5A21.63,21.63,0,0,1,1382,538.31h16.21q2.28,10.82,17.64,10.82,18.93,0,18.92-18.78V519.11h-.28q-7.26,12.95-22,12.94-16.65,0-25.18-11.52-7.83-10.1-7.82-27.17,0-15.51,8.82-25.89,9.24-11,24.46-11,15.79,0,21.77,12.1h.28V458.5Zm-36,60.75q10,0,15.22-8.11,4.56-7,4.55-17.5,0-10.38-4.55-16.93-5.27-7.4-15.22-7.39t-15.08,8.25q-4.26,6.82-4.27,17.35,0,10,4.56,16.65A16.9,16.9,0,0,0,1415,519.25Z"
                style="fill: #fff" />
            <path
                d="M1530.62,477.85v37.84q0,5.55,3.84,5.55a24.55,24.55,0,0,0,4-.28V532.2A30.85,30.85,0,0,1,1528.2,534q-10.82,0-12.52-9-9.11,9-25.47,9-10.67,0-17.49-5.4-7.68-5.83-7.69-16.08,0-12.22,9.11-17.64,5.55-3.27,19.2-5.26l15.37-2.28c4.46-1.32,6.69-4,6.69-8.1q0-10-15.23-10T1484,481h-16.22q1.41-24.47,33.43-24.47,12.09,0,20.06,4.84Q1530.62,467,1530.62,477.85ZM1514.4,507.3V495.21a25,25,0,0,1-9.11,3l-10.81,1.42q-13.23,2.28-13.23,12.23,0,4.85,5.41,7.4a21.62,21.62,0,0,0,9.53,2,22.65,22.65,0,0,0,11.81-3.13Q1514.41,514.27,1514.4,507.3Z"
                style="fill: #fff" />
            <path
                d="M1549.82,532.05V458.5h15.37v10.82l.28.28q7.83-13.08,22.91-13.09,12.22,0,19.13,6.41t6.9,18.63v50.5h-16.22V485.82q0-16.5-14.37-16.5a16.35,16.35,0,0,0-12.87,5.55,20.06,20.06,0,0,0-4.91,13.79v43.39Z"
                style="fill: #fff" />
            <path d="M1633.61,445.84V430.48h16.22v15.36Zm0,86.21V458.5h16.22v73.55Z" style="fill: #fff" />
            <path d="M1666.62,471.31V458.5h59.75v11.39l-42.11,49.36h44.24v12.8h-64.73V520.67l40.69-49.36Z"
                style="fill: #fff" />
            <path
                d="M1808.73,499.48h-54q0,9.24,4.83,15.22,5.27,6.54,14.94,6.54,13.65,0,17.93-12.23h15.36A29.55,29.55,0,0,1,1796,527.43a35.85,35.85,0,0,1-21.55,6.61q-16.93,0-26.46-10.66t-9.53-28q0-16.22,9.53-27.31,10.1-11.54,26-11.53,15.51,0,25.47,11.38,9.52,10.68,9.53,26.18A51.6,51.6,0,0,1,1808.73,499.48Zm-54-10.67h37.84A21.88,21.88,0,0,0,1787,475a16.6,16.6,0,0,0-13-5.69,18.24,18.24,0,0,0-13.65,5.55A20.11,20.11,0,0,0,1754.68,488.81Z"
                style="fill: #fff" />
            <path
                d="M1892.1,430.48V532.05h-15.36V522.1h-.29Q1870.33,534,1853.69,534t-25.89-11.38q-8.54-10.51-8.54-27.88,0-18.78,10-29.16,8.67-9.11,21.91-9.11,17.36,0,24.47,11.53h.28V430.48Zm-56.62,65.58q0,10.4,4.84,17.36,5.55,7.82,15.5,7.82a18.12,18.12,0,0,0,15.79-8.25q4.85-7.11,4.84-17.78,0-12.09-5.48-19t-14.86-6.9q-10.53,0-16.08,8.39Q1835.49,484.82,1835.48,496.06Z"
                style="fill: #fff" />
            <path d="M1945.3,445.84V430.48h82.23v15.36h-32.29v86.21h-17.78V445.84Z" style="fill: #fff" />
            <path d="M2041,532.05V430.48h73.13v15.36h-55.34v26.61H2110V487h-51.21v29.73h56.33v15.36Z" style="fill: #fff" />
            <path
                d="M2132.37,532.05V430.48h42.11q22.33,0,34.15,14.94,10.66,13.36,10.66,35.85t-10.66,35.85q-11.82,14.93-34.15,14.93ZM2150.16,445v72.55h17.49q19.35,0,27.46-10.52,6.41-8.53,6.4-25.75t-6.4-25.75Q2187,445,2167.65,445Z"
                style="fill: #fff" />
            <path
                d="M2342.49,499.48h-54.06q0,9.24,4.84,15.22,5.27,6.54,14.94,6.54,13.65,0,17.92-12.23h15.36a29.49,29.49,0,0,1-11.73,18.42,35.87,35.87,0,0,1-21.55,6.61q-16.93,0-26.46-10.66t-9.54-28q0-16.22,9.54-27.31,10.1-11.54,26-11.53,15.49,0,25.46,11.38,9.54,10.68,9.53,26.18A51.59,51.59,0,0,1,2342.49,499.48Zm-54.06-10.67h37.84a21.87,21.87,0,0,0-5.47-13.8,16.6,16.6,0,0,0-13-5.69,18.26,18.26,0,0,0-13.66,5.55A20.2,20.2,0,0,0,2288.43,488.81Z"
                style="fill: #fff" />
            <path d="M2376.06,532.05l-26.74-73.55H2367L2385.6,515h.28l17.92-56.48h16.79l-26.32,73.55Z" style="fill: #fff" />
            <path
                d="M2498.83,499.48h-54q0,9.24,4.83,15.22,5.26,6.54,14.94,6.54,13.65,0,17.92-12.23h15.37a29.55,29.55,0,0,1-11.74,18.42,35.87,35.87,0,0,1-21.55,6.61q-16.93,0-26.46-10.66t-9.53-28q0-16.22,9.53-27.31,10.1-11.54,26-11.53,15.51,0,25.47,11.38,9.52,10.68,9.53,26.18A51.6,51.6,0,0,1,2498.83,499.48Zm-54-10.67h37.84a21.88,21.88,0,0,0-5.48-13.8,16.6,16.6,0,0,0-13-5.69,18.24,18.24,0,0,0-13.65,5.55A20.11,20.11,0,0,0,2444.78,488.81Z"
                style="fill: #fff" />
            <path
                d="M2512.92,532.05V458.5h15.36v10.82l.29.28q7.82-13.08,22.9-13.09,12.24,0,19.13,6.41t6.9,18.63v50.5h-16.21V485.82q0-16.5-14.37-16.5a16.39,16.39,0,0,0-12.88,5.55,20.05,20.05,0,0,0-4.9,13.79v43.39Z"
                style="fill: #fff" />
            <path
                d="M2588.88,470.6V458.5h12.24V436.45h16.22V458.5H2632v12.1h-14.65v39.26c0,3.8.37,6.31,1.13,7.54q1.58,2.57,6.69,2.56a30.34,30.34,0,0,0,6.83-.57v12.52l-10.53.85q-11.94,0-16.5-4.83-3.84-4-3.84-13.94V470.6Z"
                style="fill: #fff" />
            <path d="M208.44,473.38v14.5H136.75v-14.5Zm0,28.73v14.51H136.75V502.11Z" style="fill: #fff" />
        </g>
    </g>
</svg>
